<svg width="19" height="19" viewBox="0 0 19 19" fill="none" xmlns="http://www.w3.org/2000/svg">
<path fill-rule="evenodd" clip-rule="evenodd" d="M0 9.74101C0 14.044 2.72178 17.6953 6.49682 18.9833C6.97213 19.073 7.14534 18.7722 7.14534 18.5139C7.14534 18.2825 7.13717 17.6702 7.13251 16.8575C4.49004 17.4459 3.9325 15.5515 3.9325 15.5515C3.50035 14.4261 2.8775 14.1266 2.8775 14.1266C2.01495 13.522 2.94282 13.5346 2.94282 13.5346C3.89634 13.6033 4.39789 14.5386 4.39789 14.5386C5.24586 16.0269 6.62163 15.597 7.16283 15.3476C7.24915 14.718 7.49467 14.2892 7.76586 14.0452C5.65644 13.7995 3.43853 12.9641 3.43853 9.23154C3.43853 8.16774 3.80886 7.29828 4.41656 6.61719C4.31916 6.37082 3.99316 5.38058 4.50987 4.03992C4.50987 4.03992 5.30768 3.77741 7.12201 5.03794C7.88017 4.82207 8.69256 4.71384 9.50029 4.71025C10.3074 4.71384 11.1198 4.82207 11.8792 5.03794C13.6923 3.77741 14.489 4.03992 14.489 4.03992C15.0068 5.38058 14.6808 6.37082 14.5834 6.61719C15.1923 7.29828 15.5597 8.16774 15.5597 9.23154C15.5597 12.9731 13.3389 13.7965 11.2225 14.0381C11.5636 14.3388 11.8669 14.9332 11.8669 15.8415C11.8669 17.1439 11.8558 18.1946 11.8558 18.5139C11.8558 18.7746 12.0267 19.0772 12.509 18.9821C16.2805 17.6917 19 14.0434 19 9.74101C19 4.36103 14.7462 0 9.49913 0C4.25384 0 0 4.36103 0 9.74101Z" fill="#00C8C8"/>
</svg>
