<svg width="31" height="30" viewBox="0 0 31 30" fill="none" xmlns="http://www.w3.org/2000/svg">
<path fill-rule="evenodd" clip-rule="evenodd" d="M23.5704 12.8126C24.8189 12.8126 25.8307 13.7918 25.8307 15C25.8307 15.8925 25.2778 16.6587 24.4861 16.999C24.5205 17.2149 24.5391 17.434 24.5391 17.6562C24.5391 21.0218 20.491 23.7499 15.4976 23.7499C10.5039 23.7499 6.45573 21.0218 6.45573 17.6562C6.45573 17.4326 6.47486 17.212 6.50974 16.9945C5.72311 16.6524 5.17432 15.889 5.17432 15C5.17432 13.7918 6.18618 12.8126 7.43465 12.8126C8.04182 12.8126 8.59182 13.0453 8.99797 13.4224C10.5627 12.3314 12.7257 11.6335 15.1316 11.569L16.2815 6.33775C16.3038 6.2365 16.3668 6.14767 16.4566 6.09142C16.5462 6.0347 16.6557 6.01478 16.7603 6.03681L20.5167 6.80955C20.7809 6.29463 21.3241 5.93744 21.9584 5.93744C22.8501 5.93744 23.5728 6.63705 23.5728 7.50002C23.5728 8.36299 22.8501 9.0626 21.9584 9.0626C21.0928 9.0626 20.3924 8.40189 20.3515 7.57431L16.9873 6.8822L15.9577 11.5704C18.3287 11.6506 20.4576 12.3474 22.0027 13.4264C22.4091 13.047 22.9611 12.8126 23.5704 12.8126ZM17.4375 16.5628C17.4375 17.4244 18.1619 18.1254 19.0521 18.1254C19.9424 18.1254 20.6666 17.4244 20.6666 16.5628C20.6666 15.7013 19.9424 15 19.0521 15C18.1619 15 17.4375 15.7013 17.4375 16.5628ZM19.3362 20.6913C18.2343 21.7563 16.1226 21.8391 15.5019 21.8391C14.8807 21.8391 12.7691 21.7563 11.6683 20.6911C11.5051 20.5331 11.5051 20.2767 11.6686 20.1185C11.8318 19.9606 12.0968 19.9603 12.2602 20.1185C12.9548 20.7907 14.4407 21.0293 15.5019 21.0293C16.5632 21.0293 18.0492 20.7907 18.7451 20.1183C18.9088 19.9603 19.1735 19.9606 19.3367 20.1188C19.5 20.277 19.5 20.5334 19.3362 20.6913ZM11.9485 15C11.058 15 10.3334 15.701 10.3334 16.5626C10.3334 17.4239 11.058 18.1249 11.9485 18.1249C12.8383 18.1249 13.5625 17.4239 13.5625 16.5626C13.5625 15.701 12.8383 15 11.9485 15Z" fill="#00C8C8"/>
</svg>
