<svg width="23" height="14" viewBox="0 0 23 14" fill="none" xmlns="http://www.w3.org/2000/svg">
<path d="M14.916 13.9975L11.9705 7.45274C10.8035 9.61289 9.51044 11.8577 8.40386 13.994C8.39773 14.0051 7.86908 13.9986 7.86884 13.992C6.17768 10.2691 4.42443 6.57059 2.72515 2.85048C2.33104 1.9411 0.951168 0.478177 0.00709959 0.486495C0.00675156 0.380825 0.00153188 0.145385 0 0.00259789L5.82169 0L5.81773 0.477531C5.134 0.507593 3.95271 0.919024 4.25849 1.6311C5.07938 3.3023 7.98465 9.77749 8.76986 11.4213C9.31799 10.4096 10.848 7.71269 11.4778 6.57239C10.984 5.61646 9.35184 2.04684 8.86252 1.14765C8.49348 0.561661 7.56746 0.489843 6.85409 0.479795C6.85433 0.329231 6.86297 0.214026 6.85923 0.00829069L11.9775 0.0231611V0.461603C11.2844 0.479754 10.6285 0.722951 10.9253 1.3477C11.6139 2.69598 12.0155 3.65556 12.6485 4.90241C12.8507 4.53729 13.8844 2.53519 14.3778 1.47805C14.6761 0.775881 14.2309 0.5123 12.9838 0.480675C13.0003 0.365143 12.9894 0.133114 12.9999 0.022549C14.5914 0.0168955 16.9944 0.0116444 17.4199 0.00558855L17.4223 0.461863C16.6099 0.491597 15.7696 0.899973 15.3306 1.53356L13.2022 5.69788C13.4359 6.24934 15.482 10.5376 15.6977 11.0132L20.0983 1.43223C19.7853 0.656282 18.7864 0.483055 18.3959 0.474311C18.3987 0.350947 18.3989 0.16244 18.4 0.00541767L22.9938 0.0383825L23 0.0602833L22.9921 0.472309C21.9844 0.50096 21.3609 1.0093 20.9884 1.84275C20.073 3.79349 17.2746 9.97209 15.4068 13.9988C15.4043 14.001 14.9171 13.9981 14.916 13.9975Z" fill="#00C8C8"/>
</svg>
