<svg width="25" height="24" viewBox="0 0 25 24" fill="none" xmlns="http://www.w3.org/2000/svg">
<path fill-rule="evenodd" clip-rule="evenodd" d="M24.4775 6.23251C24.19 5.20009 23.343 4.38675 22.2674 4.11077C20.3177 3.60938 12.4999 3.60938 12.4999 3.60938C12.4999 3.60938 4.68227 3.60938 2.73264 4.11077C1.65699 4.38675 0.809977 5.20009 0.522492 6.23251C0 8.10435 0 12.0092 0 12.0092C0 12.0092 0 15.9143 0.522492 17.7859C0.809977 18.8184 1.65699 19.6319 2.73264 19.9077C4.68227 20.4093 12.4999 20.4093 12.4999 20.4093C12.4999 20.4093 20.3177 20.4093 22.2674 19.9077C23.343 19.6319 24.19 18.8184 24.4775 17.7859C25 15.9143 25 12.0092 25 12.0092C25 12.0092 25 8.10435 24.4775 6.23251Z" fill="#00C8C8"/>
<path fill-rule="evenodd" clip-rule="evenodd" d="M10 15.6093L16.4948 12.0094L10 8.40918V15.6093Z" fill="black"/>
</svg>
